<svg width="720" height="952" viewBox="0 0 720 952" fill="none" xmlns="http://www.w3.org/2000/svg">
<g clip-path="url(#clip0_22862_235)">
<path d="M-689.6 72H-686V75.5996H686V72H689.6V0H690.4V72H694V75.5996H720V76.4004H694V80H690.4V599H694V602.6H720V603.4H694V607H690.4V852H694V855.6H720V856.4H694V860H690.4V952H689.6V860H686V856.4H-686V860H-689.6V952H-690.4V860H-694V856.4H-720V855.6H-694V852H-690.4V607H-694V603.4H-720V602.6H-694V599H-690.4V80H-694V76.4004H-720V75.5996H-694V72H-690.4V0H-689.6V72ZM-686 603.4V607H-689.6V852H-686V855.6H686V852H689.6V607H686V603.4H-686ZM-686 80H-689.6V599H-686V602.6H686V599H689.6V80H686V76.4004H-686V80Z" fill="#020609" fill-opacity="0.08"/>
</g>
<defs>
<clipPath id="clip0_22862_235">
<rect width="720" height="952" fill="white"/>
</clipPath>
</defs>
</svg>
