<svg width="1439" height="952" viewBox="0 0 1439 952" fill="none" xmlns="http://www.w3.org/2000/svg">
<path d="M30.4004 72H34V75.5996H1406V72H1409.6V0H1410.4V72H1414V75.5996H1440V76.4004H1414V80H1410.4V599H1414V602.6H1440V603.4H1414V607H1410.4V852H1414V855.6H1440V856.4H1414V860H1410.4V952H1409.6V860H1406V856.4H34V860H30.4004V952H29.5996V860H26V856.4H0V855.6H26V852H29.5996V607H26V603.4H0V602.6H26V599H29.5996V80H26V76.4004H0V75.5996H26V72H29.5996V0H30.4004V72ZM34 603.4V607H30.4004V852H34V855.6H1406V852H1409.6V607H1406V603.4H34ZM34 80H30.4004V599H34V602.6H1406V599H1409.6V80H1406V76.4004H34V80Z" fill="#020609" fill-opacity="0.08"/>
</svg>
