<svg width="1440" height="1407" viewBox="0 0 1440 1407" fill="none" xmlns="http://www.w3.org/2000/svg">
<g clip-path="url(#clip0_22562_109)">
<path d="M30.4004 72H34V75.5996H1406V72H1409.6V0H1410.4V72H1414V75.5996H1440V76.4004H1414V80H1410.4V1315H1414V1318.6H1440V1319.4H1414V1323H1410.4V1407H1414V1410.6H1440V1411.4H1414V1415H1410.4V2664H1414V2667.6H1440V2668.4H1414V2672H1410.4V2756H1414V2759.6H1440V2760.4H1414V2764H1410.4V4013H1414V4016.6H1440V4017.4H1414V4021H1410.4V4151H1409.6V4021H1406V4017.4H34V4021H30.4004V4151H29.5996V4021H26V4017.4H0V4016.6H26V4013H29.5996V2764H26V2760.4H0V2759.6H26V2756H29.5996V2672H26V2668.4H0V2667.6H26V2664H29.5996V1415H26V1411.4H0V1410.6H26V1407H29.5996V1323H26V1319.4H0V1318.6H26V1315H29.5996V80H26V76.4004H0V75.5996H26V72H29.5996V0H30.4004V72ZM34 2764H30.4004V4013H34V4016.6H1406V4013H1409.6V2764H1406V2760.4H34V2764ZM34 2672H30.4004V2756H34V2759.6H1406V2756H1409.6V2672H1406V2668.4H34V2672ZM34 1415H30.4004V2664H34V2667.6H1406V2664H1409.6V1415H1406V1411.4H34V1415ZM34 1323H30.4004V1407H34V1410.6H1406V1407H1409.6V1323H1406V1319.4H34V1323ZM34 80H30.4004V1315H34V1318.6H1406V1315H1409.6V80H1406V76.4004H34V80Z" fill="#020609" fill-opacity="0.08"/>
</g>
<defs>
<clipPath id="clip0_22562_109">
<rect width="1440" height="1407" fill="white"/>
</clipPath>
</defs>
</svg>
