<svg width="1728" height="1000" viewBox="0 0 1728 1000" fill="none" xmlns="http://www.w3.org/2000/svg">
<mask id="mask0_22583_232" style="mask-type:alpha" maskUnits="userSpaceOnUse" x="0" y="0" width="1728" height="1000">
<rect width="1728" height="1000" fill="url(#paint0_linear_22583_232)"/>
</mask>
<g mask="url(#mask0_22583_232)">
<path d="M36.4004 95H40.7998V98.5996H318V95H322.399V0H323.2V95H327.6V98.5996H1262.4V95H1266.8V0H1267.6V95H1272V98.5996H1687.2V95H1691.6V0H1692.4V95H1696.8V98.5996H1728V99.4004H1696.8V103H1692.4V580H1696.8V583.6H1728V584.4H1696.8V588H1692.4V1000H1691.6V588H1687.2V584.4H1272V588H1262.4V584.4H327.6V588H318V584.4H40.7998V588H36.4004V1000H35.5996V588H31.2002V584.4H0V583.6H31.2002V580H35.5996V103H31.2002V99.4004H0V98.5996H31.2002V95H35.5996V0H36.4004V95ZM40.7998 103H36.4004V580H40.7998V583.6H318V580H322.399V103H318V99.4004H40.7998V103ZM327.6 103H323.2V580H327.6V583.6H1262.4V580H1266.8V103H1262.4V99.4004H327.6V103ZM1272 103H1267.6V580H1272V583.6H1687.2V580H1691.6V103H1687.2V99.4004H1272V103Z" fill="white" fill-opacity="0.12"/>
</g>
<defs>
<linearGradient id="paint0_linear_22583_232" x1="864" y1="0" x2="864" y2="1000" gradientUnits="userSpaceOnUse">
<stop stop-color="#020609"/>
<stop offset="1" stop-color="#458781"/>
</linearGradient>
</defs>
</svg>
