<svg width="20" height="20" viewBox="0 0 20 20" fill="none" xmlns="http://www.w3.org/2000/svg">
<path d="M9.59998 17.6C14.0183 17.6 17.6 14.0183 17.6 9.59998C17.6 5.1817 14.0183 1.59998 9.59998 1.59998C5.1817 1.59998 1.59998 5.1817 1.59998 9.59998C1.59998 14.0183 5.1817 17.6 9.59998 17.6Z" stroke="white" stroke-linecap="round" stroke-linejoin="round"/>
<path d="M6.39991 2.39999H7.19991C5.63991 7.07199 5.63991 12.128 7.19991 16.8H6.39991" stroke="white" stroke-linecap="round" stroke-linejoin="round"/>
<path d="M12 2.39999C13.56 7.07199 13.56 12.128 12 16.8" stroke="white" stroke-linecap="round" stroke-linejoin="round"/>
<path d="M2.3999 12.8V12C7.0719 13.56 12.1279 13.56 16.7999 12V12.8" stroke="white" stroke-linecap="round" stroke-linejoin="round"/>
<path d="M2.3999 7.2C7.0719 5.64 12.1279 5.64 16.7999 7.2" stroke="white" stroke-linecap="round" stroke-linejoin="round"/>
</svg>
