<svg width="48" height="25" viewBox="0 0 48 25" fill="none" xmlns="http://www.w3.org/2000/svg">
<path d="M31.537 25C38.0323 25 43.343 19.8353 43.7515 13.3088L48 13.3088L48 11.6912L43.7515 11.6912C43.343 5.16466 38.0324 -4.357e-07 31.537 -7.19619e-07C28.6934 -8.43916e-07 26.079 0.991927 24.0009 2.65303C21.9228 0.991927 19.3084 -1.25415e-06 16.463 -1.37853e-06C9.96769 -1.66244e-06 4.65705 5.16466 4.24854 11.6912L-5.11039e-07 11.6912L-5.81746e-07 13.3088L4.24854 13.3088C4.65705 19.8353 9.96769 25 16.463 25C19.3066 25 21.9211 24.0081 24.0009 22.347C26.079 24.0081 28.6934 25 31.537 25ZM39.0749 20.1962C37.1425 22.1674 34.4836 23.3842 31.537 23.3842C29.1623 23.3842 26.9742 22.5918 25.2016 21.2535C27.1962 19.1789 28.4839 16.3971 28.6775 13.3106L42.1636 13.3106C41.9701 15.9945 40.8298 18.4045 39.0732 20.198L39.0749 20.1962ZM20.9105 11.6912C21.1041 9.00733 22.2443 6.59728 24.0009 4.80379C25.7557 6.59728 26.8978 9.00733 27.0914 11.6912L20.9105 11.6912ZM27.0914 13.3088C26.8978 15.9927 25.7575 18.4027 24.0009 20.1962C22.2461 18.4027 21.1041 15.9927 20.9105 13.3088L27.0914 13.3088ZM39.0749 4.8056C40.8298 6.59909 41.9718 9.00915 42.1654 11.693L28.6793 11.693C28.4857 8.60656 27.1962 5.82474 25.2034 3.75017C26.9742 2.41004 29.1641 1.61938 31.5388 1.61757C34.4854 1.61757 37.1443 2.8344 39.0767 4.8056L39.0749 4.8056ZM8.92685 4.8056C10.8593 2.8344 13.5182 1.61757 16.4648 1.61757C18.8395 1.61757 21.0294 2.41004 22.8002 3.75017C20.8056 5.82474 19.5162 8.60656 19.3243 11.693L5.83817 11.693C6.03177 9.00914 7.17203 6.59909 8.92863 4.8056L8.92685 4.8056ZM8.92685 20.198C7.17203 18.4045 6.02999 15.9945 5.83639 13.3106L19.3226 13.3106C19.5162 16.3971 20.8056 19.1789 22.7985 21.2535C21.0277 22.5936 18.8377 23.3842 16.463 23.3842C13.5164 23.3842 10.8575 22.1674 8.92507 20.1962L8.92685 20.198Z" fill="#020609"/>
</svg>
