<svg width="14" height="14" viewBox="0 0 14 14" fill="none" xmlns="http://www.w3.org/2000/svg">
<g clip-path="url(#clip0_22305_1812)">
<path d="M9.43942 9.86326C9.90805 10.3319 9.90805 11.0917 9.43942 11.5603L7.84839 13.1514C7.37976 13.62 6.61996 13.62 6.15133 13.1514L4.5603 11.5603C4.09167 11.0917 4.09167 10.3319 4.5603 9.86326L6.15133 8.27223C6.61996 7.80361 7.37976 7.80361 7.84839 8.27223L9.43942 9.86326ZM5.7275 6.15135C6.19613 6.61998 6.19613 7.37978 5.7275 7.84841L4.13647 9.43944C3.66784 9.90806 2.90805 9.90806 2.43942 9.43944L0.848387 7.84841C0.379758 7.37978 0.379758 6.61998 0.848387 6.15135L2.43942 4.56032C2.90805 4.09169 3.66784 4.09169 4.13647 4.56032L5.7275 6.15135ZM13.1513 6.15135C13.62 6.61998 13.62 7.37978 13.1513 7.84841L11.5603 9.43944C11.0917 9.90806 10.3319 9.90806 9.86325 9.43944L8.27221 7.84841C7.80359 7.37978 7.80359 6.61998 8.27222 6.15135L9.86325 4.56032C10.3319 4.09169 11.0917 4.09169 11.5603 4.56032L13.1513 6.15135ZM9.43942 2.43944C9.90805 2.90806 9.90805 3.66786 9.43942 4.13649L7.84839 5.72752C7.37976 6.19615 6.61996 6.19615 6.15133 5.72752L4.5603 4.13649C4.09167 3.66786 4.09167 2.90806 4.5603 2.43944L6.15133 0.848406C6.61996 0.379777 7.37976 0.379777 7.84839 0.848406L9.43942 2.43944Z" fill="#458781"/>
</g>
<defs>
<clipPath id="clip0_22305_1812">
<rect width="14" height="14" fill="white"/>
</clipPath>
</defs>
</svg>
