<svg width="1442" height="838" viewBox="0 0 1442 838" fill="none" xmlns="http://www.w3.org/2000/svg">
<path d="M31.4004 92H35V95.5996H1407V92H1410.6V0H1411.4V92H1415V95.5996H1441V96.4004H1415V100H1411.4V770H1415V773.599H1442V774.399H1415V778H1411.4V838H1410.6V778H1407V774.399H35V778H31.4004V838H30.5996V778H27V774.399H0V773.599H27V770H30.5996V100H27V96.4004H1V95.5996H27V92H30.5996V0H31.4004V92ZM35 100H31.4004V770H35V773.599H1407V770H1410.6V100H1407V96.4004H35V100Z" fill="white" fill-opacity="0.1"/>
</svg>
