<svg width="1440" height="826" viewBox="0 0 1440 826" fill="none" xmlns="http://www.w3.org/2000/svg">
<path d="M30.4004 80H34V83.5996H1406V80H1409.6V0H1410.4V80H1414V83.5996H1440V84.4004H1414V88H1410.4V758H1414V761.599H1441V762.399H1414V766H1410.4V826H1409.6V766H1406V762.399H34V766H30.4004V826H29.5996V766H26V762.399H-1V761.599H26V758H29.5996V88H26V84.4004H0V83.5996H26V80H29.5996V0H30.4004V80ZM34 88H30.4004V758H34V761.599H1406V758H1409.6V88H1406V84.4004H34V88Z" fill="white" fill-opacity="0.1"/>
</svg>
