<svg width="104" height="28" viewBox="0 0 104 28" fill="none" xmlns="http://www.w3.org/2000/svg">
<path d="M0 2H6.18916C10.4039 2 12.9099 4.45143 12.9099 8.98286V9.13143C12.9099 13.0686 11.0873 15.26 8.961 15.6686V15.9286C11.0494 16.3371 12.9099 18.64 12.9099 22.2057V22.6886C12.9099 25.2143 12.9859 26.6629 13.2896 28H9.49258C9.11288 26.4771 9.11288 24.7314 9.11288 22.6514V20.6457C9.11288 18.5657 8.08768 17.4143 6.15119 17.4143H3.79703V28H0V2ZM3.79703 5.23143V14.1829H6.15119C8.08768 14.1829 9.11288 12.9571 9.11288 10.7286V8.68571C9.11288 6.45714 8.08768 5.23143 6.15119 5.23143H3.79703Z" fill="white"/>
<path d="M23.862 5.23143H18.1664V12.8457H23.6721V16.0771H18.1664V24.7686H24.0518V28H14.3694V2H23.862V5.23143Z" fill="white"/>
<path d="M24.9566 2H28.7536V24.7686H34.4492V28H24.9566V2Z" fill="white"/>
<path d="M35.0247 2H38.8217V28H35.0247V2Z" fill="white"/>
<path d="M43.5015 2H49.4629L53.5257 28H49.7287L48.5136 20.46H44.3748L43.1978 28H39.4007L43.5015 2ZM44.8685 17.2286H48.02L46.5771 8.05429H46.3113L44.8685 17.2286Z" fill="white"/>
<path d="M63.503 2H67.3V28H62.8955L57.2759 8.16571H57.048L57.8454 28H54.0484V2H58.4529L64.1485 21.9086H64.3763L63.503 2Z" fill="white"/>
<path d="M80.4473 2V5.23143H76.0807V28H72.2836V5.23143H67.917V2H80.4473Z" fill="white"/>
<path d="M82.9758 2H88.9372L93 28H89.203L87.9879 20.46H83.8492L82.6721 28H78.875L82.9758 2ZM84.3428 17.2286H87.4943L86.0514 8.05429H85.7856L84.3428 17.2286Z" fill="white"/>
<path d="M93.496 7.68C93.496 4.368 95.032 2.64 98.12 2.64C101.304 2.64 102.888 4.464 102.888 7.68V9.056C102.888 12.352 101.384 14.16 98.12 14.16C94.904 14.16 93.496 12.416 93.496 9.008V7.68ZM94.664 7.568V9.152C94.664 11.936 95.768 13.168 98.152 13.168C100.552 13.168 101.72 11.904 101.72 9.168V7.568C101.72 4.912 100.52 3.632 98.184 3.632C95.848 3.632 94.664 4.912 94.664 7.568ZM96.616 5.072H98.248C99.32 5.072 99.944 5.696 99.944 6.88V6.912C99.944 7.936 99.48 8.48 98.952 8.576V8.688C99.48 8.784 99.944 9.36 99.944 10.288V10.416C99.944 11.072 99.96 11.44 100.04 11.792H99.032C98.936 11.392 98.936 10.944 98.936 10.416V9.888C98.936 9.344 98.728 9.088 98.232 9.088H97.624V11.792H96.616V5.072ZM97.624 5.968V8.192H98.232C98.728 8.192 98.936 7.904 98.936 7.328V6.784C98.936 6.208 98.728 5.968 98.232 5.968H97.624Z" fill="white"/>
</svg>
