<svg width="435" height="16" viewBox="0 0 435 16" fill="none" xmlns="http://www.w3.org/2000/svg">
<path d="M0.25 0V16" stroke="#020609" stroke-opacity="0.24" stroke-width="0.5"/>
<path d="M14.25 0V16" stroke="#020609" stroke-opacity="0.24" stroke-width="0.5"/>
<path d="M28.25 0V16" stroke="#020609" stroke-opacity="0.24" stroke-width="0.5"/>
<path d="M42.25 0V16" stroke="#020609" stroke-opacity="0.24" stroke-width="0.5"/>
<path d="M56.25 0V16" stroke="#020609" stroke-opacity="0.24" stroke-width="0.5"/>
<path d="M70.25 0V16" stroke="#020609" stroke-opacity="0.24" stroke-width="0.5"/>
<path d="M84.25 0V16" stroke="#020609" stroke-opacity="0.24" stroke-width="0.5"/>
<path d="M98.25 0V16" stroke="#020609" stroke-opacity="0.24" stroke-width="0.5"/>
<path d="M112.25 0V16" stroke="#020609" stroke-opacity="0.24" stroke-width="0.5"/>
<path d="M126.25 0V16" stroke="#020609" stroke-opacity="0.24" stroke-width="0.5"/>
<path d="M140.25 0V16" stroke="#020609" stroke-opacity="0.24" stroke-width="0.5"/>
<path d="M154.25 0V16" stroke="#020609" stroke-opacity="0.24" stroke-width="0.5"/>
<path d="M168.25 0V16" stroke="#020609" stroke-opacity="0.24" stroke-width="0.5"/>
<path d="M182.25 0V16" stroke="#020609" stroke-opacity="0.24" stroke-width="0.5"/>
<path d="M196.25 0V16" stroke="#020609" stroke-opacity="0.24" stroke-width="0.5"/>
<path d="M210.25 0V16" stroke="#020609" stroke-opacity="0.24" stroke-width="0.5"/>
<path d="M252.25 0V16" stroke="#020609" stroke-opacity="0.24" stroke-width="0.5"/>
<path d="M294.25 0V16" stroke="#020609" stroke-opacity="0.24" stroke-width="0.5"/>
<path d="M336.25 0V16" stroke="#020609" stroke-opacity="0.24" stroke-width="0.5"/>
<path d="M378.25 0V16" stroke="#020609" stroke-opacity="0.24" stroke-width="0.5"/>
<path d="M392.25 0V16" stroke="#020609" stroke-opacity="0.24" stroke-width="0.5"/>
<path d="M392.25 0V16" stroke="#020609" stroke-opacity="0.24" stroke-width="0.5"/>
<path d="M406.25 0V16" stroke="#020609" stroke-opacity="0.24" stroke-width="0.5"/>
<path d="M420.25 0V16" stroke="#020609" stroke-opacity="0.24" stroke-width="0.5"/>
<path d="M434.25 0V16" stroke="#020609" stroke-opacity="0.24" stroke-width="0.5"/>
<path d="M238.25 0V16" stroke="#020609" stroke-opacity="0.24" stroke-width="0.5"/>
<path d="M280.25 0V16" stroke="#020609" stroke-opacity="0.24" stroke-width="0.5"/>
<path d="M322.25 0V16" stroke="#020609" stroke-opacity="0.24" stroke-width="0.5"/>
<path d="M364.25 0V16" stroke="#020609" stroke-opacity="0.24" stroke-width="0.5"/>
<path d="M224.25 0V16" stroke="#020609" stroke-opacity="0.24" stroke-width="0.5"/>
<path d="M266.25 0V16" stroke="#020609" stroke-opacity="0.24" stroke-width="0.5"/>
<path d="M308.25 0V16" stroke="#020609" stroke-opacity="0.24" stroke-width="0.5"/>
<path d="M350.25 0V16" stroke="#020609" stroke-opacity="0.24" stroke-width="0.5"/>
</svg>
